<?xml version="1.0" encoding="utf-8"?>
<!-- Generator: Adobe Illustrator 27.4.0, SVG Export Plug-In . SVG Version: 6.00 Build 0)  -->
<svg version="1.1" id="Layer_1" xmlns="http://www.w3.org/2000/svg" xmlns:xlink="http://www.w3.org/1999/xlink" x="0px" y="0px"
	 viewBox="0 0 1080 1080" style="enable-background:new 0 0 1080 1080;" xml:space="preserve">
<style type="text/css">
	.st0{fill:#FFC60D;stroke:#000000;stroke-width:11;stroke-linecap:round;stroke-linejoin:round;stroke-miterlimit:10;}
</style>
<g>
	<polygon points="798.66,630.91 228.77,630.91 289.89,470.68 859.77,470.68 	"/>
	<polygon points="762.31,265.85 496.37,835.74 336.14,835.74 602.09,265.85 	"/>
	<path class="st0" d="M792.36,732.44c-14.07,0.93-31.93-7.05-42.85,5.34c-8.66,9.08-10.82,24.6-5.52,35.85
		c4,5.97,13.55,10.29,6.87,18.53c-7.3,8.65-8.68,21.79-4.29,32.6c3.51,6.93,16.82,10.85,9.84,20.29c-4.6,5.92-5.76,14.44-3.44,21.83
		c10.91,31.49,142.59,40.21,174.31,37.36c78.88-5.64,105.02-124.48,64.06-181.26c-8.16-12.71-23.98-18.11-29.39-32.86
		c-7.95-15.33-8.27-32.94-11.35-49.61c-5.07-27.07,1.37-54.75,1.53-81.91c7.64-51.37-65.53-50.49-62.52,8.2
		c-1.24,26.99-7.35,53.43-9.83,80.27c-1.63,13.16-11.98,20.4-23.79,24.84c-10.33,3.89-21.42,5.28-32.42,4.5
		c-56.8-4.05-206.84-17.93-216.01,3.71c-2.95,10.24-4.01,26.54,7.89,31.05C658.25,720.87,753.78,723.84,792.36,732.44z"/>
	<path class="st0" d="M287.64,371.56c14.07-0.93,31.93,7.05,42.85-5.34c8.66-9.08,10.82-24.6,5.52-35.85
		c-4-5.97-13.55-10.29-6.87-18.53c7.3-8.65,8.68-21.79,4.29-32.6c-3.51-6.93-16.82-10.85-9.84-20.29c4.6-5.92,5.76-14.44,3.44-21.83
		c-10.91-31.49-142.59-40.21-174.31-37.36C73.83,205.4,47.68,324.25,88.65,381.02c8.16,12.71,23.98,18.11,29.39,32.86
		c7.95,15.33,8.27,32.94,11.35,49.61c5.07,27.07-1.37,54.75-1.53,81.91c-7.64,51.37,65.53,50.49,62.52-8.2
		c1.24-26.99,7.35-53.43,9.83-80.27c1.63-13.16,11.98-20.4,23.79-24.84c10.33-3.89,21.42-5.28,32.42-4.5
		c56.8,4.05,206.84,17.93,216.01-3.71c2.95-10.24,4.01-26.54-7.89-31.05C421.75,383.13,326.22,380.16,287.64,371.56z"/>
</g>
</svg>
